<svg width="38" height="38" viewBox="0 0 38 38" fill="none" xmlns="http://www.w3.org/2000/svg">
<rect width="38" height="38" rx="19" fill="black"/>
<path d="M19 28.9102C13.5605 28.9102 9.03906 24.3887 9.03906 18.9492C9.03906 13.5 13.5508 8.98828 18.9902 8.98828C24.4395 8.98828 28.9609 13.5 28.9609 18.9492C28.9609 24.3887 24.4492 28.9102 19 28.9102ZM19 27.25C23.6094 27.25 27.3008 23.5586 27.3008 18.9492C27.3008 14.3398 23.5996 10.6484 18.9902 10.6484C14.3809 10.6484 10.709 14.3398 10.709 18.9492C10.709 23.5586 14.3906 27.25 19 27.25ZM17.9258 23.5879C17.6035 23.5879 17.3398 23.4512 17.0957 23.1289L14.7129 20.1992C14.5762 20.0137 14.4883 19.8086 14.4883 19.5938C14.4883 19.1641 14.8203 18.8223 15.2402 18.8223C15.5137 18.8223 15.7285 18.9004 15.9629 19.2129L17.8867 21.7031L21.9395 15.1992C22.125 14.916 22.3691 14.7598 22.6133 14.7598C23.0234 14.7598 23.4141 15.043 23.4141 15.4824C23.4141 15.6973 23.2871 15.9121 23.1797 16.1074L18.7168 23.1289C18.5215 23.4316 18.248 23.5879 17.9258 23.5879Z" fill="#F0F0F5"/>
</svg>
