<svg width="38" height="38" viewBox="0 0 38 38" fill="none" xmlns="http://www.w3.org/2000/svg">
<rect width="38" height="38" rx="19" fill="black"/>
<path d="M19 29.0371C13.4531 29.0371 8.91211 24.4863 8.91211 18.9492C8.91211 16.5469 9.79102 14.3203 11.2363 12.582C11.666 12.0254 12.3301 11.9766 12.7402 12.3965C13.1504 12.8066 13.0918 13.334 12.7305 13.832C11.5879 15.2188 10.9043 17.0059 10.8945 18.9492C10.8945 23.4316 14.498 27.0449 19 27.0449C23.502 27.0449 27.0957 23.4316 27.0957 18.9492C27.0957 14.7012 23.9023 11.2441 19.752 10.8633V13.4023C19.752 13.9004 19.4102 14.2812 18.9121 14.2812C18.4238 14.2812 18.082 13.9004 18.082 13.4023V9.79883C18.082 9.21289 18.4141 8.86133 19.0098 8.86133C24.5469 8.86133 29.0879 13.4121 29.0879 18.9492C29.0879 24.4863 24.5469 29.0371 19 29.0371ZM20.5723 20.4434C19.7422 21.2441 18.5996 21.0586 17.9453 20.1016L14.5176 15.1211C14.127 14.5547 14.6934 13.9785 15.2695 14.3691L20.25 17.7969C21.207 18.4512 21.373 19.6035 20.5723 20.4434Z" fill="#FB8B28"/>
</svg>
